<mxfile host="app.diagrams.net" agent="Mozilla/5.0 (Macintosh; Intel Mac OS X 10_15_7) AppleWebKit/537.36 (KHTML, like Gecko) Chrome/128.0.0.0 Safari/537.36" version="24.7.10">
  <diagram id="rCCvv9-ON43f-Ad0EWST" name="Page-1">
    <mxGraphModel grid="1" page="1" gridSize="10" guides="1" tooltips="1" connect="1" arrows="1" fold="1" pageScale="1" pageWidth="850" pageHeight="1100" math="0" shadow="0">
      <root>
        <mxCell id="0" />
        <mxCell id="1" parent="0" />
        <mxCell id="WEjUQYKMP1Lt1RqKY-Xn-1" value="&lt;font style=&quot;font-size: 21px;&quot;&gt;SUM&lt;/font&gt;" style="rounded=0;whiteSpace=wrap;html=1;fillColor=#f5f5f5;fontColor=#333333;strokeColor=#666666;" vertex="1" parent="1">
          <mxGeometry x="305" y="173" width="250" height="57" as="geometry" />
        </mxCell>
        <mxCell id="WEjUQYKMP1Lt1RqKY-Xn-2" value="BERT Base" style="rounded=1;whiteSpace=wrap;html=1;fontSize=19;fillColor=#fad7ac;strokeColor=#b46504;strokeWidth=2;" vertex="1" parent="1">
          <mxGeometry x="50" y="20" width="120" height="60" as="geometry" />
        </mxCell>
        <mxCell id="WEjUQYKMP1Lt1RqKY-Xn-3" value="BERT Large" style="rounded=1;whiteSpace=wrap;html=1;fontSize=19;fillColor=#fad7ac;strokeColor=#b46504;strokeWidth=3;" vertex="1" parent="1">
          <mxGeometry x="180" y="20" width="120" height="60" as="geometry" />
        </mxCell>
        <mxCell id="WEjUQYKMP1Lt1RqKY-Xn-4" value="RoBERTa Base" style="rounded=1;whiteSpace=wrap;html=1;fontSize=19;fillColor=#b0e3e6;strokeColor=#0e8088;strokeWidth=2;" vertex="1" parent="1">
          <mxGeometry x="310" y="20" width="120" height="60" as="geometry" />
        </mxCell>
        <mxCell id="WEjUQYKMP1Lt1RqKY-Xn-5" value="RoBERTa Large" style="rounded=1;whiteSpace=wrap;html=1;fontSize=19;fillColor=#b0e3e6;strokeColor=#0e8088;strokeWidth=3;" vertex="1" parent="1">
          <mxGeometry x="440" y="20" width="120" height="60" as="geometry" />
        </mxCell>
        <mxCell id="WEjUQYKMP1Lt1RqKY-Xn-6" value="DeBERTa Base" style="rounded=1;whiteSpace=wrap;html=1;fontSize=19;fillColor=#b1ddf0;strokeColor=#10739e;strokeWidth=2;" vertex="1" parent="1">
          <mxGeometry x="570" y="20" width="120" height="60" as="geometry" />
        </mxCell>
        <mxCell id="WEjUQYKMP1Lt1RqKY-Xn-7" value="DeBERTa Large" style="rounded=1;whiteSpace=wrap;html=1;fontSize=19;fillColor=#b1ddf0;strokeColor=#10739e;strokeWidth=3;" vertex="1" parent="1">
          <mxGeometry x="700" y="20" width="120" height="60" as="geometry" />
        </mxCell>
        <mxCell id="WEjUQYKMP1Lt1RqKY-Xn-8" value="Predictions" style="endArrow=classic;html=1;rounded=0;exitX=0.5;exitY=1;exitDx=0;exitDy=0;entryX=0.032;entryY=-0.039;entryDx=0;entryDy=0;entryPerimeter=0;fontSize=14;fontColor=#808080;" edge="1" parent="1" target="WEjUQYKMP1Lt1RqKY-Xn-1">
          <mxGeometry x="-0.0005" width="50" height="50" relative="1" as="geometry">
            <mxPoint x="110" y="80.00000000000011" as="sourcePoint" />
            <mxPoint x="320.75" y="182.11000000000013" as="targetPoint" />
            <mxPoint as="offset" />
          </mxGeometry>
        </mxCell>
        <mxCell id="WEjUQYKMP1Lt1RqKY-Xn-9" value="Predictions" style="endArrow=classic;html=1;rounded=0;exitX=0.5;exitY=1;exitDx=0;exitDy=0;fontSize=14;fontColor=#808080;" edge="1" parent="1" source="WEjUQYKMP1Lt1RqKY-Xn-7">
          <mxGeometry width="50" height="50" relative="1" as="geometry">
            <mxPoint x="863" y="216" as="sourcePoint" />
            <mxPoint x="550" y="171" as="targetPoint" />
          </mxGeometry>
        </mxCell>
        <mxCell id="WEjUQYKMP1Lt1RqKY-Xn-10" value="Predictions" style="endArrow=classic;html=1;rounded=0;exitX=0.5;exitY=1;exitDx=0;exitDy=0;fontSize=14;fontColor=#808080;entryX=0.25;entryY=0;entryDx=0;entryDy=0;" edge="1" parent="1" target="WEjUQYKMP1Lt1RqKY-Xn-1">
          <mxGeometry width="50" height="50" relative="1" as="geometry">
            <mxPoint x="240" y="80.00000000000011" as="sourcePoint" />
            <mxPoint x="354" y="181" as="targetPoint" />
          </mxGeometry>
        </mxCell>
        <mxCell id="WEjUQYKMP1Lt1RqKY-Xn-11" value="Predictions" style="endArrow=classic;html=1;rounded=0;exitX=0.5;exitY=1;exitDx=0;exitDy=0;fontSize=14;fontColor=#808080;entryX=0.824;entryY=-0.005;entryDx=0;entryDy=0;entryPerimeter=0;" edge="1" parent="1" target="WEjUQYKMP1Lt1RqKY-Xn-1">
          <mxGeometry x="-0.0011" width="50" height="50" relative="1" as="geometry">
            <mxPoint x="633" y="80.00000000000011" as="sourcePoint" />
            <mxPoint x="510" y="170" as="targetPoint" />
            <mxPoint as="offset" />
          </mxGeometry>
        </mxCell>
        <mxCell id="WEjUQYKMP1Lt1RqKY-Xn-12" value="Predictions" style="endArrow=classic;html=1;rounded=0;exitX=0.5;exitY=1;exitDx=0;exitDy=0;entryX=0.412;entryY=-0.022;entryDx=0;entryDy=0;entryPerimeter=0;fontSize=14;fontColor=#808080;" edge="1" parent="1" source="WEjUQYKMP1Lt1RqKY-Xn-4" target="WEjUQYKMP1Lt1RqKY-Xn-1">
          <mxGeometry width="50" height="50" relative="1" as="geometry">
            <mxPoint x="260" y="100" as="sourcePoint" />
            <mxPoint x="383" y="200" as="targetPoint" />
          </mxGeometry>
        </mxCell>
        <mxCell id="WEjUQYKMP1Lt1RqKY-Xn-13" value="Predictions" style="endArrow=classic;html=1;rounded=0;exitX=0.5;exitY=1;exitDx=0;exitDy=0;entryX=0.582;entryY=-0.026;entryDx=0;entryDy=0;entryPerimeter=0;fontSize=14;fontColor=#808080;" edge="1" parent="1" source="WEjUQYKMP1Lt1RqKY-Xn-5" target="WEjUQYKMP1Lt1RqKY-Xn-1">
          <mxGeometry width="50" height="50" relative="1" as="geometry">
            <mxPoint x="270" y="110" as="sourcePoint" />
            <mxPoint x="460" y="170" as="targetPoint" />
          </mxGeometry>
        </mxCell>
        <mxCell id="WEjUQYKMP1Lt1RqKY-Xn-14" value="&lt;div style=&quot;font-size: 19px;&quot;&gt;Result &amp;gt;= 2?&lt;/div&gt;" style="rhombus;whiteSpace=wrap;html=1;fontSize=19;fillColor=#f5f5f5;fontColor=#333333;strokeColor=#666666;labelPosition=center;verticalLabelPosition=middle;align=center;verticalAlign=middle;" vertex="1" parent="1">
          <mxGeometry x="340" y="260" width="180" height="90" as="geometry" />
        </mxCell>
        <mxCell id="WEjUQYKMP1Lt1RqKY-Xn-15" value="" style="endArrow=classic;html=1;rounded=0;exitX=0.5;exitY=1;exitDx=0;exitDy=0;entryX=0.5;entryY=0;entryDx=0;entryDy=0;" edge="1" parent="1" target="WEjUQYKMP1Lt1RqKY-Xn-14">
          <mxGeometry width="50" height="50" relative="1" as="geometry">
            <mxPoint x="430" y="230" as="sourcePoint" />
            <mxPoint x="500" y="250" as="targetPoint" />
          </mxGeometry>
        </mxCell>
        <mxCell id="WEjUQYKMP1Lt1RqKY-Xn-16" value="&lt;font style=&quot;font-size: 21px;&quot;&gt;1&lt;/font&gt;" style="rounded=0;whiteSpace=wrap;html=1;fillColor=#bac8d3;strokeColor=#23445d;fontSize=21;" vertex="1" parent="1">
          <mxGeometry x="345" y="390" width="35" height="40" as="geometry" />
        </mxCell>
        <mxCell id="WEjUQYKMP1Lt1RqKY-Xn-17" value="&lt;font style=&quot;font-size: 21px;&quot;&gt;0&lt;/font&gt;" style="rounded=0;whiteSpace=wrap;html=1;fillColor=#bac8d3;strokeColor=#23445d;fontSize=21;" vertex="1" parent="1">
          <mxGeometry x="470" y="390" width="35" height="40" as="geometry" />
        </mxCell>
        <mxCell id="WEjUQYKMP1Lt1RqKY-Xn-18" value="yes" style="endArrow=classic;html=1;rounded=0;exitX=0.5;exitY=1;exitDx=0;exitDy=0;entryX=0.5;entryY=0;entryDx=0;entryDy=0;fontSize=15;" edge="1" parent="1" source="WEjUQYKMP1Lt1RqKY-Xn-14" target="WEjUQYKMP1Lt1RqKY-Xn-16">
          <mxGeometry width="50" height="50" relative="1" as="geometry">
            <mxPoint x="430" y="230" as="sourcePoint" />
            <mxPoint x="370" y="360" as="targetPoint" />
          </mxGeometry>
        </mxCell>
        <mxCell id="WEjUQYKMP1Lt1RqKY-Xn-19" value="no" style="endArrow=classic;html=1;rounded=0;entryX=0.5;entryY=0;entryDx=0;entryDy=0;fontSize=15;" edge="1" parent="1" target="WEjUQYKMP1Lt1RqKY-Xn-17">
          <mxGeometry width="50" height="50" relative="1" as="geometry">
            <mxPoint x="430" y="350" as="sourcePoint" />
            <mxPoint x="380" y="370" as="targetPoint" />
          </mxGeometry>
        </mxCell>
      </root>
    </mxGraphModel>
  </diagram>
</mxfile>
